<?xml version="1.0"?>
<svg style="fill: white; stroke: white;" xmlns="http://www.w3.org/2000/svg" id="Layer_1" data-name="Layer 1" viewBox="0 0 512 512" width="512" height="512">
    <path d="M222.606,123.454l-5.8,33.311a6,6,0,0,0,8.69,6.345l29.965-15.661,29.889,15.806a6,6,0,0,0,8.721-6.3l-5.635-33.338,24.268-23.542a6,6,0,0,0-3.3-10.242L275.96,84.887,261.07,54.531a6,6,0,0,0-5.372-3.357h-.015a6,6,0,0,0-5.374,3.332L235.273,84.788,201.8,89.569a6,6,0,0,0-3.35,10.226Zm17.486-27.232a6,6,0,0,0,4.526-3.272l11.033-22.219L266.576,93a6,6,0,0,0,4.509,3.293l24.542,3.626L277.82,117.2a6,6,0,0,0-1.738,5.307l4.135,24.461-21.931-11.6a6,6,0,0,0-5.584-.013l-21.986,11.49,4.253-24.441a6,6,0,0,0-1.713-5.314l-17.722-17.36Z" />
    <path d="M378.493,145.448,373.4,174.713a6,6,0,0,0,8.69,6.346L408.416,167.3l26.258,13.886a6,6,0,0,0,8.721-6.3l-4.95-29.288,21.32-20.683a6,6,0,0,0-3.3-10.242l-29.384-4.342L414,83.659a6,6,0,0,0-5.373-3.357h-.014a6,6,0,0,0-5.374,3.332l-13.21,26.6-29.405,4.2a6,6,0,0,0-3.351,10.225Zm16.354-23.777a6,6,0,0,0,4.526-3.272l9.206-18.54,9.117,18.585a6,6,0,0,0,4.509,3.293l20.478,3.026-14.858,14.414a6,6,0,0,0-1.738,5.306l3.45,20.412-18.3-9.677a5.994,5.994,0,0,0-5.584-.014l-18.346,9.588,3.549-20.4a6,6,0,0,0-1.713-5.314L374.355,124.6Z" />
    <path d="M72.615,145.448l-5.092,29.265a6,6,0,0,0,8.691,6.346L102.539,167.3,128.8,181.186a6,6,0,0,0,8.722-6.3l-4.951-29.288,21.32-20.683a6,6,0,0,0-3.3-10.242L121.2,110.327,108.121,83.659a6,6,0,0,0-5.372-3.357h-.015a6,6,0,0,0-5.374,3.332l-13.21,26.6-29.405,4.2a6,6,0,0,0-3.35,10.225ZM88.97,121.671A6,6,0,0,0,93.5,118.4l9.207-18.54,9.116,18.585a6,6,0,0,0,4.51,3.293l20.478,3.026-14.858,14.414a6,6,0,0,0-1.739,5.306l3.45,20.412-18.3-9.677a5.994,5.994,0,0,0-5.584-.014L81.43,164.792l3.548-20.4a6,6,0,0,0-1.712-5.314L68.478,124.6Z" />
    <path d="M256,187.146a48.164,48.164,0,0,0-48.109,48.11v28.073a48.109,48.109,0,1,0,96.218,0V235.256A48.164,48.164,0,0,0,256,187.146Zm36.109,76.183a36.109,36.109,0,1,1-72.218,0V235.256a36.109,36.109,0,1,1,72.218,0Z" />
    <path d="M405.3,210.936a44.331,44.331,0,0,0-44.281,44.281v25.52a44.281,44.281,0,1,0,88.562,0v-25.52A44.331,44.331,0,0,0,405.3,210.936Zm32.281,69.8a32.281,32.281,0,1,1-64.562,0v-25.52a32.281,32.281,0,1,1,64.562,0Z" />
    <path d="M456.339,333.982H440.206a5.458,5.458,0,0,1-5.452-5.451,6,6,0,0,0-11.647-2.026l-6.416,17.876a12.014,12.014,0,0,1-22.667-.146l-6.135-17.8a6,6,0,0,0-9.915-2.287l-.145.144a6,6,0,0,0-1.757,4.242,5.458,5.458,0,0,1-5.452,5.451H354.255a51.134,51.134,0,0,0-7.737.59A54.853,54.853,0,0,0,312.146,322.5H294.4a6.6,6.6,0,0,1-6.6-6.6,6,6,0,0,0-11.647-2.026L269.1,333.539a13.816,13.816,0,0,1-26.066-.167l-6.749-19.585a6,6,0,0,0-9.92-2.282l-.159.159a6,6,0,0,0-1.752,4.237,6.6,6.6,0,0,1-6.6,6.6h-18a54.85,54.85,0,0,0-34.378,12.079,51.059,51.059,0,0,0-7.731-.595H141.612a5.458,5.458,0,0,1-5.452-5.451,6,6,0,0,0-11.647-2.026L118.1,344.381a12.015,12.015,0,0,1-22.668-.146l-6.135-17.8a6,6,0,0,0-9.917-2.286l-.144.144a6,6,0,0,0-1.756,4.241,5.457,5.457,0,0,1-5.451,5.451H55.662A50.72,50.72,0,0,0,5,384.644v70.182a6,6,0,0,0,6,6H501a6,6,0,0,0,6-6V384.644A50.719,50.719,0,0,0,456.339,333.982ZM144.727,377.626v71.2H17V384.644a38.706,38.706,0,0,1,38.662-38.662H72.027A17.356,17.356,0,0,0,82.208,342.7l1.877,5.449a24.015,24.015,0,0,0,45.307.288l2.055-5.725a17.363,17.363,0,0,0,9.6,3.265c.109,0,.22.008.331.008h13.374A54.808,54.808,0,0,0,144.727,377.626Zm210.546,71.2H156.727v-71.2A43.176,43.176,0,0,1,199.854,334.5h18a18.511,18.511,0,0,0,11.5-3.989l2.333,6.773a25.816,25.816,0,0,0,48.706.31l2.535-7.064a18.5,18.5,0,0,0,10.878,3.96c.112.007.225.01.338.01h18a43.176,43.176,0,0,1,43.127,43.128Zm139.727,0H367.273v-71.2a54.808,54.808,0,0,0-10.027-31.644H370.62A17.357,17.357,0,0,0,380.8,342.7l1.877,5.449a24.015,24.015,0,0,0,45.307.288l2.055-5.725a17.363,17.363,0,0,0,9.6,3.265c.109,0,.22.008.33.008h16.366A38.706,38.706,0,0,1,495,384.644Z" />
    <path d="M62.422,255.217v25.52a44.281,44.281,0,1,0,88.562,0v-25.52a44.281,44.281,0,0,0-88.562,0Zm76.562,0v25.52a32.281,32.281,0,1,1-64.562,0v-25.52a32.281,32.281,0,0,1,64.562,0Z" />
</svg>
