<svg id="Capa_1" enable-background="new 0 0 511.87 511.87" height="512" viewBox="0 0 511.87 511.87" width="512" xmlns="http://www.w3.org/2000/svg">
    <g>
        <path d="m444.665 11.439c-9.203 9.203-13.251 22.127-10.936 34.979l-85.728 85.727c-27.919-14.445-59.879-22.275-91.907-22.275-31.98 0-64.036 7.844-91.907 22.275l-85.727-85.727c2.29-12.724-1.783-25.826-10.935-34.978-15.298-15.298-40.653-15.208-55.86-.001-15.201 15.201-15.309 40.552-.001 55.86 9.294 9.294 22.165 13.233 34.979 10.935l29.979 29.979c2.93 2.928 7.679 2.93 10.607 0 2.929-2.93 2.929-7.678 0-10.607l-25.509-25.508c4.117-2.792 7.811-6.486 10.603-10.602l78.326 78.327c-4.339 2.684-8.566 5.53-12.678 8.527l-30.883-30.883c-2.93-2.928-7.678-2.928-10.607 0-2.929 2.93-2.929 7.678 0 10.607l29.623 29.623c-44.682 38.105-71.008 94.15-71.008 153.174 0 111.269 91.994 201 201 201 112.184 0 201-83.604 201-201 0-60.446-25.844-114.782-71.008-153.174l79.46-79.461c12.64 2.263 25.856-1.813 34.978-10.934 16.68-16.68 13.82-45.519-3.386-58.786-14.795-11.408-37.354-12.198-52.475 2.923zm-387.747 45.255c-10.444 10.443-23.941 8.351-32.796.814-9.813-8.352-13.923-23.391-1.851-35.463 10.251-10.251 23.03-8.806 31.811-2.028 10.601 8.183 15.374 24.14 2.836 36.677zm293.505 93.931c9.331 5.514 18.142 11.817 26.339 18.821-21.841 20.66-41.658 43.893-59.047 69.223-12.328-7.596-25.2-14.699-38.418-21.222 20.502-26.186 44.414-48.706 71.126-66.822zm-101.94 113.566c6.637-12.046 13.881-23.564 21.687-34.515 13.516 6.569 26.667 13.77 39.236 21.494-7.052 10.939-13.667 22.251-19.838 33.902-13.363-7.629-26.917-14.518-41.085-20.881zm34.267 34.265c-4.36 8.903-8.472 17.986-12.318 27.243-13.128-7.841-26.913-14.96-41.109-21.239 3.727-9.128 7.814-18.202 12.182-26.956 14.246 6.366 27.844 13.273 41.245 20.952zm-78.24-166.303c-13.082 14.395-25.281 29.794-36.455 46.023-11.475-2.612-23.16-4.863-34.93-6.728 20.344-17.965 44.631-31.56 71.385-39.295zm-84.876 52.471c13.29 1.814 26.522 4.14 39.506 6.942-7.548 11.735-14.58 23.887-21.098 36.397-14.616-3.13-29.478-5.683-44.374-7.629 7.236-12.93 15.969-24.912 25.966-35.71zm-33.15 49.923c14.956 1.805 29.903 4.245 44.615 7.284-4.853 10.104-9.373 20.425-13.554 30.938-14.046-1.963-28.342-3.261-42.673-3.879 2.761-11.925 6.674-23.413 11.612-34.343zm-16.389 76.323c0-9.2.682-18.242 1.979-27.088 13.422.512 26.817 1.653 40.002 3.388-11.629 32.086-20.164 65.807-25.361 100.524-10.67-23.43-16.62-49.445-16.62-76.824zm28.827 99.353c11.478-106.095 56.114-208.75 131.652-283.595 12.448-1.723 25.656-2.186 38.354-1.308-81.746 87.578-131.68 198.806-142.935 318.336-10.251-10.045-19.349-21.26-27.071-33.433zm85.975 72.47c-16.251-6.759-31.341-15.759-44.889-26.611 9.157-124.125 60.899-239.498 147.521-328.542 16.88 2.885 32.991 8.051 48.004 15.171-104.943 75.125-156.602 210.817-150.636 339.982zm15.321 5.597c-1.703-28.353-.721-56.674 2.932-84.26 3.94-29.739 10.917-58.415 20.777-85.558 14.167 6.302 27.877 13.456 40.882 21.346-2.913 7.665-5.654 15.437-8.216 23.311-13.756 42.282-22.102 86.699-24.855 132.146-10.825-1.423-21.359-3.778-31.52-6.985zm152.207-18.36c1.757-14.895 4.258-29.529 7.514-43.852 6.19 8.47 11.886 17.181 17.01 26.059-7.664 6.566-15.86 12.527-24.524 17.793zm35.766-28.252c-6.964-11.747-14.853-23.198-23.55-34.179 3.476-12.511 7.533-24.764 12.174-36.725 12.731 13.045 24.525 26.918 35.199 41.393-6.934 10.637-14.923 20.525-23.823 29.511zm32.092-43.492c-11.346-14.885-23.836-29.11-37.265-42.453 4.762-10.978 9.986-21.621 15.673-31.896 12.691 13.673 24.333 28.15 34.74 43.168-3.445 10.857-7.863 21.284-13.148 31.181zm21.812-87.316c0 12.75-1.292 25.204-3.747 37.239-9.73-13.116-20.376-25.762-31.787-37.789 9.176-14.988 19.375-29.124 30.535-42.333 3.263 13.772 4.999 28.128 4.999 42.883zm-54.302-131.217c6.389 6.413 12.312 13.289 17.719 20.571-26.274 30.333-49.126 63.505-67.958 98.692-1.955 3.652-.579 8.197 3.073 10.151 3.584 1.918 8.176.617 10.151-3.073 17.683-33.039 39.014-64.25 63.466-92.917 7.311 11.78 13.349 24.427 17.906 37.757-55.377 61.635-87.769 144.654-95.725 227.775-13.877 6.673-28.707 11.664-44.222 14.729 6.436-54.876 21.174-107.869 43.882-157.659 1.719-3.768.057-8.218-3.712-9.936-3.772-1.719-8.218-.057-9.936 3.712-23.921 52.455-39.226 108.358-45.58 166.249-9.872 1.107-20.151 1.431-30.171.928 7.032-118.298 55-235.94 141.107-316.979zm-13.575-31.304c-4.112-2.997-8.34-5.843-12.678-8.527l78.327-78.327c2.789 4.113 6.486 7.811 10.603 10.602zm98.377-84.479c-21.22 0-32.322-26.825-17.323-41.824 9.351-9.351 23.35-8.844 32.535-1.776 10.623 8.175 10.985 23.163 4.163 33.254-4.094 6.054-10.774 10.346-19.375 10.346z" />
    </g>
</svg>