<svg id="Capa_1" enable-background="new 0 0 512 512" height="512" viewBox="0 0 512 512" width="512" xmlns="http://www.w3.org/2000/svg"><g><path d="m76.516 512h59.484v-30h-59.484c-8.556 0-15.516-6.96-15.516-15.516 0-8.406 6.581-15.218 14.982-15.506 0 0 56.232-5.629 62.485-6.603 35.785 41.391 88.652 67.625 147.533 67.625 107.523 0 195-87.477 195-195 0-67.874-34.865-127.748-87.618-162.685l35.254-64.927c2.398.396 4.856.612 7.364.612 24.813 0 45-20.187 45-45s-20.187-45-45-45-45 20.187-45 45c0 11.455 4.309 21.918 11.383 29.87l-35.211 64.848c-24.728-11.367-52.221-17.718-81.172-17.718s-56.444 6.351-81.172 17.718l-35.211-64.848c7.074-7.952 11.383-18.415 11.383-29.87 0-24.813-20.187-45-45-45s-45 20.187-45 45 20.187 45 45 45c2.508 0 4.966-.216 7.364-.613l35.254 64.927c-52.753 34.938-87.618 94.812-87.618 162.686 0 36.414 10.043 70.521 27.489 99.718-4.953.51 17.139-1.546-44.273 4.309-24.294 1.214-43.216 21.043-43.216 45.457 0 25.098 20.418 45.516 45.516 45.516zm359.484-482c8.271 0 15 6.729 15 15s-6.729 15-15 15-15-6.729-15-15 6.729-15 15-15zm-315 15c0-8.271 6.729-15 15-15s15 6.729 15 15-6.729 15-15 15-15-6.729-15-15zm124.718 432.018c15.993-7.644 31.395-16.461 46.082-26.365 18.607 7.648 37.735 13.944 57.229 18.825-19.43 8.061-40.717 12.522-63.029 12.522-13.892 0-27.384-1.734-40.282-4.982zm141.959-30.155c-22.988-3.77-45.585-9.612-67.501-17.438 8.828-7.304 17.324-15.033 25.451-23.171 22.481 6.894 45.583 11.56 69.032 13.923-7.946 9.889-16.999 18.853-26.982 26.686zm.263-91.541c18.625 3.997 37.677 6.212 56.842 6.607-2.92 10.305-6.821 20.2-11.59 29.583-22.025-1.177-43.783-4.537-65.004-10.04 6.994-8.437 13.583-17.164 19.752-26.15zm62.372-23.327c-15.259-.039-30.457-1.356-45.397-3.934 13.719-24.381 24.552-50.278 32.251-77.159 8.888 20.249 13.834 42.605 13.834 66.098 0 5.055-.241 10.054-.688 14.995zm-35.225-117.641c-21.669 112.953-100.982 206.658-209.018 246.948-12.042-6.697-23.164-14.854-33.122-24.236 57.776-15.593 108.951-46.854 146.187-90.44 38.513-45.079 62.674-100.093 69.705-158.558 9.7 7.753 18.509 16.574 26.248 26.286zm-114.095-61.666c-.33 102.862-74.433 189.41-174.563 206.329-2.52-9.562-4.206-19.458-4.964-29.61 39.058-6.688 74.882-26.141 102.052-55.703 30.464-33.146 47.304-76.099 47.475-121.015 4.945-.448 9.948-.69 15.008-.69 5.054.001 10.052.242 14.992.689zm-178.979 146.07c2.247-20.332 8.194-39.566 17.165-57.001 8.026 13.869 16.972 27.214 26.79 39.925-13.469 7.883-28.257 13.732-43.955 17.076zm105.585-85.306c-8.667-12.738-16.214-26.166-22.574-40.17 11.202-6.337 23.209-11.41 35.834-15.006-.828 19.476-5.486 38.132-13.26 55.176zm-47.581-22.806c8.548 17.943 18.86 35.006 30.834 50.972-6.106 8.132-13.014 15.642-20.606 22.405-12.355-15.91-23.229-32.903-32.47-50.738 6.675-8.237 14.126-15.821 22.242-22.639zm-43.13 196.951c50.839-9.857 97.281-35.998 132.365-74.889 38.431-42.6 60.19-97.249 61.662-154.494 10.271 2.909 20.135 6.794 29.491 11.541-3.812 57.668-26.367 113.24-64.08 157.384-36.303 42.495-87.627 71.925-145.455 84.431-5.302-7.553-9.988-15.568-13.983-23.973z"/></g></svg>