<?xml version="1.0" encoding="iso-8859-1"?>
<!-- Generator: Adobe Illustrator 19.0.0, SVG Export Plug-In . SVG Version: 6.00 Build 0)  -->
<svg version="1.1" id="Capa_1" xmlns="http://www.w3.org/2000/svg" xmlns:xlink="http://www.w3.org/1999/xlink" x="0px" y="0px"
	 viewBox="0 0 512 512" style="enable-background:new 0 0 512 512;" xml:space="preserve">
<g>
	<g>
		<path d="M443.642,340.891c16.302-31.939,25.691-67.973,25.691-106.224C469.333,105.271,364.063,0,234.667,0S0,105.271,0,234.667
			s105.271,234.667,234.667,234.667c45.585,0,88.034-13.273,124.082-35.855c0.158-0.059,0.323-0.096,0.48-0.155l-0.042-0.112
			c29.828-18.775,55.092-44.009,73.898-73.816c17.725,11.611,57.581,41.71,57.581,77.939c0,40.375-49.25,53.333-202.667,53.333
			c-5.896,0-10.667,4.771-10.667,10.667c0,5.896,4.771,10.667,10.667,10.667c131.167,0,224-5.354,224-74.667
			C512,390.221,464.915,354.557,443.642,340.891z M444.272,273.594c-170.887-66.185-282.579-31.365-325.447-11.268
			c-2.885-8.228-5.402-16.618-7.271-25.268c26.122-15.624,141.63-72.174,336.077,4.881
			C447.266,252.706,446.184,263.284,444.272,273.594z M447.31,219.077c-183.258-69.869-300.333-25.014-339.393-4.346
			c-0.796-7.474-1.25-15.048-1.25-22.73c0-1.76,0.249-3.477,0.292-5.23c22.418-14.487,136.991-76.932,335.971,2.48
			C445.051,198.975,446.57,208.909,447.31,219.077z M435.822,163.858c-24.408-9.103-47.694-16.451-69.555-21.785
			C341.103,84.121,305.48,47.236,278.243,25.84C351.642,41.139,411.251,94.296,435.822,163.858z M184.121,27.702
			c15.542-3.796,31.667-6.082,48.32-6.255c11.232,5.663,69.378,37.957,107.734,114.911c-14.163-2.716-27.896-4.911-40.872-6.27
			C263.03,68.809,210.6,39.736,183.576,28.194C183.764,28.036,183.931,27.859,184.121,27.702z M166.234,44.303
			c17.177,6.354,69.009,29.24,106.678,84c-14.958-0.648-28.973-0.488-42.117,0.346c-29.358-33.974-65.5-51.755-84.941-59.426
			C152.027,60.491,158.728,52.102,166.234,44.303z M204.057,131.311c-44.617,6.216-76.23,19.341-94.814,29.313
			c3.813-25.869,12.307-50.507,24.961-73.001C148.014,92.74,177.698,105.82,204.057,131.311z M234.667,448
			c-117.625,0-213.333-95.698-213.333-213.333c0-56.207,22.007-107.244,57.664-145.363c-23.224,36.349-36.331,78.74-36.331,124.03
			c0,122.197,93.911,222.759,213.336,233.586C248.982,447.62,241.868,448,234.667,448z M277.333,426.667
			C159.708,426.667,64,330.969,64,213.333c0-54.193,20.316-105.096,55.893-143.919C97.543,105.82,85.333,147.99,85.333,192
			c0,122.09,93.746,222.598,213.021,233.57C291.397,426.25,284.393,426.667,277.333,426.667z M160.367,333.036
			c27.811-8.574,63.784-14.648,108.104-12.836c-1.13,24.555-4.589,51.12-9.889,76.027
			C220.124,384.638,186.339,362.396,160.367,333.036z M310.99,404.878c-10.771-0.453-21.374-1.542-31.678-3.542
			c5.648-26.258,9.246-53.734,10.452-79.72c9.84,0.928,20.104,2.319,30.682,4.072C319.276,350.773,316.109,377.288,310.99,404.878z
			 M365.313,400.173c-10.75,2.324-21.663,3.734-32.682,4.381c4.658-25.96,7.639-50.997,8.895-74.874
			c10.318,2.186,20.908,4.723,31.872,7.77C371.865,357.585,369.185,378.574,365.313,400.173z M390.056,380.372
			c1.798-12.495,3.152-24.685,4.16-36.668c6.376,2.033,12.88,4.262,19.461,6.602C406.712,361.049,398.783,371.073,390.056,380.372z
			 M424.452,331.63c-129.207-46.612-221.443-35.781-278.292-16.415c-7.391-10.396-13.809-21.483-19.268-33.138
			c39.224-18.736,145.766-52.995,312.409,12.434C435.512,307.444,430.503,319.836,424.452,331.63z"/>
	</g>
</g>
<g>
</g>
<g>
</g>
<g>
</g>
<g>
</g>
<g>
</g>
<g>
</g>
<g>
</g>
<g>
</g>
<g>
</g>
<g>
</g>
<g>
</g>
<g>
</g>
<g>
</g>
<g>
</g>
<g>
</g>
</svg>
